HIERARCHY
ROOT Hips
{
 OFFSET 0.000000 0.000000 0.000000
 CHANNELS 6 Xposition Yposition Zposition Yrotation Xrotation Zrotation
 JOINT Chest
 {
  OFFSET 0.000000 9.585900 0.002600
  CHANNELS 3 Yrotation Xrotation Zrotation
  JOINT Chest2
  {
   OFFSET 0.000000 9.601200 -0.005300
   CHANNELS 3 Yrotation Xrotation Zrotation
   JOINT Chest3
   {
    OFFSET 0.000000 9.561800 0.000000
    CHANNELS 3 Yrotation Xrotation Zrotation
    JOINT Chest4
    {
     OFFSET 0.000000 9.552100 0.000000
     CHANNELS 3 Yrotation Xrotation Zrotation
     JOINT Neck
     {
      OFFSET 0.000000 14.453000 0.000000
      CHANNELS 3 Yrotation Xrotation Zrotation
      JOINT Head
      {
       OFFSET 0.000000 8.936500 -0.011300
       CHANNELS 3 Yrotation Xrotation Zrotation
       End Site
       {
        OFFSET 0.000000 17.073600 -0.006000
       }
      }
     }
     JOINT RightCollar
     {
      OFFSET -2.921100 9.558500 0.000000
      CHANNELS 3 Yrotation Xrotation Zrotation
      JOINT RightShoulder
      {
       OFFSET -13.519700 0.000000 0.000000
       CHANNELS 3 Yrotation Xrotation Zrotation
       JOINT RightElbow
       {
        OFFSET 0.000000 -29.696600 0.000000
        CHANNELS 3 Yrotation Xrotation Zrotation
        JOINT RightWrist
        {
         OFFSET 0.000000 -24.004700 0.000000
         CHANNELS 3 Yrotation Xrotation Zrotation
         End Site
         {
          OFFSET 0.000000 -17.728500 0.000000
         }
        }
       }
      }
     }
     JOINT LeftCollar
     {
      OFFSET 2.921100 9.558500 0.000000
      CHANNELS 3 Yrotation Xrotation Zrotation
      JOINT LeftShoulder
      {
       OFFSET 13.519700 0.000000 0.000000
       CHANNELS 3 Yrotation Xrotation Zrotation
       JOINT LeftElbow
       {
        OFFSET 0.000000 -29.696600 0.000000
        CHANNELS 3 Yrotation Xrotation Zrotation
        JOINT LeftWrist
        {
         OFFSET 0.000000 -24.004700 0.000000
         CHANNELS 3 Yrotation Xrotation Zrotation
         End Site
         {
          OFFSET 0.000000 -17.728500 0.000000
         }
        }
       }
      }
     }
    }
   }
  }
 }
 JOINT RightHip
 {
  OFFSET -7.771700 -0.012900 -0.001300
  CHANNELS 3 Yrotation Xrotation Zrotation
  JOINT RightKnee
  {
   OFFSET 0.000000 -40.869800 0.001200
   CHANNELS 3 Yrotation Xrotation Zrotation
   JOINT RightAnkle
   {
    OFFSET 0.000000 -39.717900 0.002100
    CHANNELS 3 Yrotation Xrotation Zrotation
    JOINT RightToe
    {
     OFFSET 0.000000 -4.965400 11.033500
     CHANNELS 3 Yrotation Xrotation Zrotation
     End Site
     {
      OFFSET 0.000000 -1.423100 5.872300
     }
    }
   }
  }
 }
 JOINT LeftHip
 {
  OFFSET 7.771700 -0.012900 -0.001300
  CHANNELS 3 Yrotation Xrotation Zrotation
  JOINT LeftKnee
  {
   OFFSET 0.000000 -40.869800 0.001200
   CHANNELS 3 Yrotation Xrotation Zrotation
   JOINT LeftAnkle
   {
    OFFSET 0.000000 -39.717900 0.002100
    CHANNELS 3 Yrotation Xrotation Zrotation
    JOINT LeftToe
    {
     OFFSET 0.000000 -4.965400 11.033500
     CHANNELS 3 Yrotation Xrotation Zrotation
     End Site
     {
      OFFSET 0.000000 -1.423100 5.872300
     }
    }
   }
  }
 }
}
MOTION
Frames: 12
Frame Time: 0.008333
0.000000 85.388000 0.000000 0.000000 -5.767877 0.000000 0.000000 11.653817 0.000000 0.000000 -5.885947 0.000000 0.000000 -0.000000 0.000000 0.000000 -0.000000 0.000000 0.000000 12.528835 0.000000 0.000000 0.711642 0.000000 0.000000 -0.000000 0.000000 0.000000 0.000000 -90.000000 0.000000 -2.309062 0.000000 0.000000 2.309062 0.000000 0.000000 -0.000000 0.000000 0.000000 -0.000000 90.000000 0.000000 -2.309062 0.000000 0.000000 2.309062 0.000000 0.000000 8.520406 0.000000 0.000000 1.905762 0.000000 -0.000000 -4.658285 0.000000 0.000000 -0.000000 0.000000 0.000000 8.520406 0.000000 0.000000 1.905762 0.000000 -0.000000 -4.658285 0.000000 0.000000 -0.000000 0.000000
-25.574368 50.305478 27.124987 162.757771 -10.459456 -0.443888 2.873319 9.801783 0.534218 0.167626 0.604490 -0.023605 0.297368 1.045716 -0.033796 2.573823 9.124437 -0.130501 3.033208 17.334972 0.261103 5.524593 -3.587019 -0.559971 1.901092 4.080373 -1.137720 -5.964243 -13.866669 -9.570870 -49.150070 -70.807922 76.515713 -3.908717 -3.200814 -23.526798 -2.032929 0.507191 2.484659 19.615148 -5.629313 1.279642 54.721289 -77.123123 -81.373808 2.478369 4.926280 14.895229 0.001124 -70.412414 -1.183420 -126.214979 81.577275 -126.721173 -4.489842 -15.862982 2.385696 -0.259945 0.721752 -0.114277 -9.126137 -73.564089 28.024537 116.151869 79.338917 112.931802 -16.524744 -23.361591 0.374099 -0.260400 -0.956373 -0.132391
-25.575372 50.304354 27.126893 162.757803 -10.458829 -0.439777 2.873901 9.801112 0.534320 0.170119 0.605905 -0.022854 0.294061 1.045111 -0.037267 2.563849 9.130401 -0.132509 3.037991 17.338359 0.265162 5.504331 -3.510554 -0.499938 1.912309 4.074389 -1.137731 -5.931944 -13.863175 -9.564194 -49.156798 -70.813620 76.518252 -3.906465 -3.202746 -23.531834 -2.043372 0.482166 2.485568 19.632754 -5.619167 1.281543 54.821622 -77.131515 -81.475683 2.480762 4.923230 14.902247 0.011653 -70.414981 -1.192483 -126.212411 81.579327 -126.721504 -4.493745 -15.861697 2.389009 -0.263295 0.725156 -0.116276 -9.122095 -73.565929 28.019074 116.139185 79.338336 112.920981 -16.540740 -23.353242 0.375034 -0.262206 -0.944313 -0.130012
-25.576378 50.303249 27.129067 162.763949 -10.458914 -0.437847 2.867509 9.799877 0.536373 0.169979 0.606084 -0.022873 0.293681 1.047064 -0.040045 2.561559 9.130307 -0.130481 3.034564 17.359167 0.274029 5.493152 -3.466194 -0.472550 1.925264 4.073059 -1.135089 -5.931740 -13.860976 -9.568153 -49.161894 -70.808813 76.565797 -3.900711 -3.199913 -23.542158 -2.047288 0.473730 2.480547 19.632226 -5.628292 1.280760 54.836012 -77.132397 -81.486053 2.477303 4.889258 14.912009 0.010947 -70.416574 -1.196884 -126.215889 81.580236 -126.727607 -4.496072 -15.861254 2.390172 -0.263671 0.727685 -0.116782 -9.150092 -73.567343 28.040759 116.145905 79.337427 112.922693 -16.560240 -23.334197 0.376183 -0.261998 -0.943517 -0.125258
-25.577098 50.302318 27.131181 162.769029 -10.461739 -0.438460 2.862776 9.799663 0.541063 0.169584 0.607077 -0.022389 0.294158 1.047609 -0.040389 2.559389 9.131611 -0.132743 3.030786 17.378380 0.284915 5.491562 -3.457850 -0.472142 1.945821 4.068335 -1.131374 -5.913930 -13.854753 -9.564994 -49.148993 -70.815795 76.555238 -3.897558 -3.202593 -23.568225 -2.049944 0.466605 2.477685 19.633705 -5.636008 1.275846 54.790705 -77.132621 -81.439258 2.475677 4.874175 14.920282 0.006614 -70.415625 -1.196055 -126.218380 81.578897 -126.730622 -4.496767 -15.859441 2.389662 -0.261115 0.728841 -0.117003 -9.160564 -73.565318 28.047175 116.128303 79.336673 112.903503 -16.575788 -23.324568 0.382851 -0.237298 -0.936436 -0.121963
-25.576253 50.301660 27.133414 162.770244 -10.468058 -0.449239 2.864033 9.800791 0.555975 0.168741 0.611141 -0.024803 0.293343 1.045912 -0.036175 2.558588 9.133461 -0.135065 3.028464 17.396007 0.296013 5.489418 -3.448459 -0.472736 1.957365 4.066113 -1.131531 -5.905276 -13.851490 -9.562152 -49.135317 -70.821142 76.547206 -3.899406 -3.193835 -23.562938 -2.050953 0.461151 2.473867 19.619171 -5.653899 1.274224 54.788824 -77.132222 -81.425250 2.476612 4.877641 14.937729 -0.032383 -70.408712 -1.156058 -126.226536 81.585793 -126.739430 -4.501704 -15.860580 2.387947 -0.258353 0.731856 -0.117449 -9.200953 -73.558339 28.086318 116.122977 79.339772 112.896698 -16.567134 -23.322697 0.382820 -0.232690 -0.925767 -0.119223
-25.576701 50.301258 27.135323 162.763352 -10.474741 -0.452592 2.872013 9.804523 0.562641 0.170379 0.608440 -0.023054 0.293543 1.046163 -0.036056 2.559175 9.134294 -0.133874 3.025740 17.414004 0.304840 5.475467 -3.379082 -0.426495 1.959718 4.069761 -1.133361 -5.893987 -13.849779 -9.557034 -49.124289 -70.827750 76.527842 -3.886620 -3.160579 -23.507710 -2.054799 0.463350 2.469542 19.615642 -5.655364 1.274109 54.830080 -77.143247 -81.467445 2.481733 4.883894 14.950685 -0.056147 -70.400764 -1.125642 -126.185565 81.587658 -126.708292 -4.488782 -15.861066 2.396543 -0.268662 0.736621 -0.125020 -9.211760 -73.551693 28.099350 116.120692 79.337912 112.893591 -16.553921 -23.317827 0.384789 -0.259914 -0.922359 -0.123568
-25.579722 50.300948 27.137165 162.750341 -10.477446 -0.441972 2.882977 9.805036 0.555861 0.170063 0.605693 -0.021498 0.293643 1.045814 -0.036119 2.559874 9.132625 -0.134600 3.026140 17.434148 0.325816 5.472968 -3.364895 -0.429966 1.964167 4.077872 -1.131811 -5.890193 -13.850020 -9.556557 -49.115226 -70.826634 76.532466 -3.877401 -3.151702 -23.498047 -2.057923 0.462205 2.467594 19.604452 -5.656285 1.270039 54.840289 -77.157421 -81.466079 2.491235 4.895591 14.956746 -0.024231 -70.399220 -1.144908 -126.142599 81.588795 -126.672809 -4.485374 -15.858809 2.406532 -0.273980 0.741729 -0.129270 -9.169832 -73.550824 28.070255 116.126757 79.343443 112.902077 -16.591471 -23.308021 0.401257 -0.261742 -0.925197 -0.127262
-25.582656 50.300752 27.139579 162.743544 -10.476720 -0.435560 2.881351 9.794997 0.553442 0.167594 0.603358 -0.020474 0.301475 1.050970 -0.037460 2.563802 9.128587 -0.132377 3.019463 17.448759 0.332823 5.475618 -3.359457 -0.436756 1.961756 4.093057 -1.124385 -5.878771 -13.853976 -9.566380 -49.090064 -70.827495 76.530186 -3.873482 -3.154455 -23.504776 -2.067714 0.463689 2.466901 19.586971 -5.654936 1.261114 54.810429 -77.161894 -81.410096 2.489199 4.891928 14.952337 -0.020122 -70.400190 -1.150922 -126.088566 81.587970 -126.623607 -4.466581 -15.858954 2.406719 -0.281903 0.747098 -0.132227 -9.144169 -73.552933 28.052203 116.100913 79.343663 112.878457 -16.631130 -23.295388 0.412958 -0.250477 -0.930723 -0.127754
-25.584464 50.300563 27.143223 162.756245 -10.470146 -0.442217 2.867820 9.786937 0.557458 0.160359 0.598637 -0.017422 0.303142 1.050455 -0.039581 2.547509 9.118726 -0.124511 3.035204 17.468380 0.329928 5.480610 -3.336523 -0.421541 1.985135 4.111140 -1.132163 -5.841700 -13.855277 -9.562238 -49.061700 -70.831009 76.488393 -3.867865 -3.160870 -23.519874 -2.045092 0.474397 2.461530 19.573599 -5.651669 1.256405 54.807222 -77.166745 -81.389947 2.483954 4.906480 14.924012 -0.058562 -70.405968 -1.131178 -126.085584 81.591945 -126.622464 -4.457012 -15.858450 2.406449 -0.287690 0.748336 -0.135454 -9.158995 -73.561601 28.059297 116.034283 79.344400 112.813580 -16.653244 -23.277375 0.419204 -0.255874 -0.933322 -0.127460
-25.585877 50.300744 27.145329 162.754128 -10.472428 -0.445887 2.860679 9.783210 0.563230 0.162647 0.598407 -0.015794 0.299745 1.050208 -0.040671 2.548314 9.118143 -0.121302 3.040581 17.476813 0.324730 5.486259 -3.314013 -0.403241 1.994718 4.119974 -1.135336 -5.821249 -13.855994 -9.563424 -49.040419 -70.830067 76.471376 -3.864872 -3.149766 -23.512317 -2.037555 0.472654 2.463368 19.565405 -5.642189 1.252255 54.795885 -77.169873 -81.366233 2.487484 4.913894 14.908774 -0.083004 -70.404219 -1.110682 -126.068986 81.594029 -126.608716 -4.445383 -15.854731 2.408604 -0.292793 0.747370 -0.140390 -9.167334 -73.559398 28.071389 116.007348 79.345432 112.782565 -16.651567 -23.260443 0.424634 -0.247365 -0.938193 -0.126028
-25.587773 50.300834 27.148121 162.755286 -10.468731 -0.448066 2.848678 9.767521 0.573975 0.169419 0.604410 -0.020759 0.292432 1.043746 -0.034707 2.553913 9.124862 -0.123640 3.038979 17.487004 0.327866 5.505192 -3.275588 -0.384344 2.002539 4.129843 -1.134723 -5.804276 -13.857478 -9.567545 -49.021085 -70.832355 76.453834 -3.860322 -3.138715 -23.500364 -2.030919 0.476090 2.455252 19.556272 -5.639877 1.256194 54.768386 -77.172987 -81.340138 2.494765 4.911035 14.907728 -0.113325 -70.408526 -1.094958 -126.059435 81.596431 -126.596760 -4.431788 -15.853622 2.400014 -0.293187 0.747682 -0.141628 -9.175814 -73.562862 28.079606 115.959667 79.345161 112.730056 -16.650594 -23.240179 0.428442 -0.228811 -0.933933 -0.117844
